<svg width="188" height="176" viewBox="0 0 188 176" fill="none" xmlns="http://www.w3.org/2000/svg">
<path d="M170.909 142.476V150.857H17.0911V142.476L34.182 125.714V75.4286C34.182 49.4476 51.5292 26.5676 76.9092 19.1924V16.7619C76.9092 12.3164 78.7098 8.05291 81.915 4.90945C85.1202 1.76598 89.4673 0 94.0001 0C98.5329 0 102.88 1.76598 106.085 4.90945C109.29 8.05291 111.091 12.3164 111.091 16.7619V19.1924C136.471 26.5676 153.818 49.4476 153.818 75.4286V125.714L170.909 142.476ZM111.091 159.238C111.091 163.684 109.29 167.947 106.085 171.091C102.88 174.234 98.5329 176 94.0001 176C89.4673 176 85.1202 174.234 81.915 171.091C78.7098 167.947 76.9092 163.684 76.9092 159.238M160.227 9.97333L148.093 21.8743C155.32 28.8759 161.059 37.215 164.975 46.408C168.892 55.6011 170.909 65.4653 170.909 75.4286H188C188 50.8724 178.087 27.2381 160.227 9.97333ZM0.000162331 75.4286H17.0911C17.0911 55.3143 25.2947 36.0381 39.9074 21.8743L27.7729 9.97333C18.953 18.5351 11.9558 28.7305 7.1881 39.9672C2.42036 51.2039 -0.0229414 63.2578 0.000162331 75.4286Z" fill="black" fill-opacity="0.1"/>
</svg>
