<svg width="21" height="21" viewBox="0 0 21 21" fill="none" xmlns="http://www.w3.org/2000/svg">
<g id="Group">
<path id="Vector" d="M11.2292 13.4298L6.84521 14.2189L7.57588 9.77647L15.9493 1.43226C16.0852 1.29529 16.2468 1.18658 16.4249 1.11239C16.6029 1.0382 16.7939 1 16.9869 1C17.1798 1 17.3708 1.0382 17.5489 1.11239C17.7269 1.18658 17.8886 1.29529 18.0244 1.43226L19.5734 2.98127C19.7104 3.11712 19.8191 3.27875 19.8933 3.45682C19.9675 3.6349 20.0057 3.82591 20.0057 4.01882C20.0057 4.21173 19.9675 4.40274 19.8933 4.58081C19.8191 4.75889 19.7104 4.92051 19.5734 5.05636L11.2292 13.4298Z" stroke="#000001" stroke-width="2" stroke-linecap="round" stroke-linejoin="round"/>
<path id="Vector_2" d="M17.8053 14.1606V18.5446C17.8053 18.9321 17.6514 19.3038 17.3773 19.5779C17.1033 19.8519 16.7316 20.0059 16.344 20.0059H2.46133C2.07376 20.0059 1.70207 19.8519 1.42801 19.5779C1.15396 19.3038 1 18.9321 1 18.5446V4.66189C1 4.27432 1.15396 3.90263 1.42801 3.62858C1.70207 3.35452 2.07376 3.20056 2.46133 3.20056H6.84533" stroke="#000001" stroke-width="2" stroke-linecap="round" stroke-linejoin="round"/>
</g>
</svg>
