<svg width="129" height="179" viewBox="0 0 129 179" fill="none" xmlns="http://www.w3.org/2000/svg">
<path d="M128.891 157.876C125.367 127.154 111.218 114.42 100.885 105.135C93.7399 98.6897 90.3046 95.3375 90.3046 89.5C90.3046 83.7424 93.7278 80.4541 100.852 74.1412C111.307 64.8835 125.625 52.2017 128.899 21.0645C129.16 18.4486 128.865 15.8073 128.032 13.3116C127.198 10.816 125.845 8.52152 124.06 6.57674C122.154 4.4995 119.83 2.84107 117.238 1.70833C114.645 0.575589 111.842 -0.00632304 109.009 9.81409e-05H19.991C17.1539 -0.00868418 14.3464 0.572053 11.7498 1.70484C9.15311 2.83762 6.82494 4.49729 4.91549 6.57674C3.13601 8.52421 1.7882 10.8197 0.959003 13.3151C0.129804 15.8104 -0.162375 18.4504 0.101313 21.0645C3.36318 52.1018 17.6283 64.6917 28.0429 73.8815C35.2359 80.2304 38.6954 83.5427 38.6954 89.5C38.6954 95.5333 35.2279 98.9135 28.0106 105.382C17.7291 114.612 3.6172 127.25 0.109379 157.876C-0.175443 160.48 0.0975137 163.114 0.910412 165.606C1.72331 168.099 3.05785 170.393 4.82679 172.339C6.74024 174.443 9.07968 176.124 11.6925 177.271C14.3054 178.419 17.133 179.008 19.991 179H109.009C111.867 179.008 114.695 178.419 117.307 177.271C119.92 176.124 122.26 174.443 124.173 172.339C125.942 170.393 127.277 168.099 128.09 165.606C128.902 163.114 129.175 160.48 128.891 157.876ZM99.6991 159.821H29.4742C23.1844 159.821 21.4103 152.629 25.8213 148.17C36.4979 137.446 58.0488 129.767 58.0488 117.469V76.7143C58.0488 68.7832 42.7273 62.7299 33.2482 49.8643C31.6838 47.7427 31.841 44.7501 35.8165 44.7501H93.3649C96.7558 44.7501 97.4856 47.7187 95.9454 49.8444C86.6033 62.7299 70.9512 68.7432 70.9512 76.7143V117.469C70.9512 129.667 93.4133 136.248 103.368 148.182C107.38 152.993 105.977 159.821 99.6991 159.821Z" fill="black" fill-opacity="0.1"/>
</svg>
