<svg width="24" height="26" viewBox="0 0 24 26" fill="none" xmlns="http://www.w3.org/2000/svg">
<g id="carbon:moon">
<path id="Vector" d="M10.1263 4.39887C9.78249 5.98912 9.73573 7.6378 9.98878 9.24791C10.2418 10.858 10.7896 12.397 11.5998 13.7744C12.41 15.1518 13.4663 16.3397 14.7066 17.2683C15.9469 18.1969 17.346 18.8474 18.8218 19.1815C18.0459 20.0512 17.1167 20.7431 16.0892 21.2163C15.0617 21.6894 13.957 21.9341 12.8405 21.9359C12.737 21.9359 12.632 21.9399 12.527 21.9359C10.5833 21.8617 8.72502 21.0522 7.27495 19.648C5.82488 18.2439 4.87469 16.3337 4.58946 14.2495C4.30423 12.1653 4.70197 10.0387 5.7136 8.23913C6.72523 6.43958 8.28681 5.08081 10.127 4.39887M11.2348 2.4375C11.1908 2.43766 11.1469 2.44201 11.1035 2.4505C8.71601 2.9108 6.57006 4.31168 5.07887 6.38343C3.58768 8.45518 2.85667 11.0513 3.0266 13.672C3.19652 16.2927 4.25537 18.7526 5.99926 20.5782C7.74316 22.4037 10.0488 23.4659 12.4723 23.5601C12.5953 23.5649 12.7183 23.5601 12.8398 23.5601C14.414 23.5612 15.9653 23.1516 17.3625 22.366C18.7598 21.5804 19.9618 20.4418 20.867 19.0466C20.9404 18.9264 20.9832 18.7873 20.9912 18.6434C20.9992 18.4996 20.972 18.356 20.9125 18.2271C20.853 18.0982 20.7631 17.9885 20.6521 17.9092C20.541 17.8298 20.4126 17.7836 20.2798 17.7751C18.7815 17.6326 17.3335 17.1188 16.0477 16.2734C14.7619 15.428 13.6728 14.2737 12.8645 12.8996C12.0562 11.5255 11.5504 9.96839 11.3861 8.34873C11.2219 6.72907 11.4036 5.09019 11.9173 3.55875C11.961 3.43617 11.977 3.30405 11.964 3.1734C11.9511 3.04275 11.9095 2.91735 11.8427 2.80765C11.7759 2.69795 11.6859 2.60712 11.5802 2.54274C11.4744 2.47835 11.356 2.44227 11.2348 2.4375Z" fill="black"/>
</g>
</svg>
