<svg width="26" height="26" viewBox="0 0 26 26" fill="none" xmlns="http://www.w3.org/2000/svg">
<g id="material-symbols:logout-rounded">
<path id="Vector" d="M16.6021 17.6313C16.4035 17.3965 16.3042 17.13 16.3042 16.8317C16.3042 16.5342 16.4035 16.2861 16.6021 16.0875L18.6062 14.0833H10.8333C10.5264 14.0833 10.2693 13.9793 10.062 13.7713C9.854 13.5641 9.75 13.3069 9.75 13C9.75 12.6931 9.854 12.4356 10.062 12.2276C10.2693 12.0203 10.5264 11.9167 10.8333 11.9167H18.6062L16.6021 9.9125C16.3854 9.69583 16.2771 9.43872 16.2771 9.14117C16.2771 8.84289 16.3854 8.58542 16.6021 8.36875C16.8007 8.15208 17.0491 8.04375 17.3474 8.04375C17.645 8.04375 17.8931 8.14306 18.0917 8.34167L21.9917 12.2417C22.1 12.35 22.1769 12.4674 22.2224 12.5938C22.2672 12.7201 22.2896 12.8556 22.2896 13C22.2896 13.1444 22.2672 13.2799 22.2224 13.4062C22.1769 13.5326 22.1 13.65 21.9917 13.7583L18.0917 17.6583C17.8569 17.8931 17.5998 17.9967 17.3203 17.9693C17.0401 17.9425 16.8007 17.8299 16.6021 17.6313ZM5.41667 22.75C4.82083 22.75 4.31058 22.538 3.88592 22.1141C3.46197 21.6894 3.25 21.1792 3.25 20.5833V5.41667C3.25 4.82083 3.46197 4.31058 3.88592 3.88592C4.31058 3.46197 4.82083 3.25 5.41667 3.25H11.9167C12.2236 3.25 12.4811 3.35364 12.6891 3.56092C12.8964 3.76892 13 4.02639 13 4.33333C13 4.64028 12.8964 4.89739 12.6891 5.10467C12.4811 5.31267 12.2236 5.41667 11.9167 5.41667H5.41667V20.5833H11.9167C12.2236 20.5833 12.4811 20.6873 12.6891 20.8953C12.8964 21.1026 13 21.3597 13 21.6667C13 21.9736 12.8964 22.2307 12.6891 22.438C12.4811 22.646 12.2236 22.75 11.9167 22.75H5.41667Z" fill="black"/>
</g>
</svg>
